<svg xmlns="http://www.w3.org/2000/svg" viewBox="2650.688 -1259.77 1792.105 765.146"><defs><style>.a,.d{fill:none;}.a{stroke:#fff8b6;stroke-width:5px;}.b{fill:#fff8b6;}.c{stroke:none;}</style></defs><g transform="translate(2559 -3499)"><g class="a" transform="translate(683.772 2253.011) rotate(-16)"><circle class="c" cx="25" cy="25" r="25"/><circle class="d" cx="25" cy="25" r="22.5"/></g><g class="a" transform="translate(1340.772 2789.011) rotate(-16)"><circle class="c" cx="25" cy="25" r="25"/><circle class="d" cx="25" cy="25" r="22.5"/></g><g class="a" transform="translate(1030.68 2777.416) rotate(16)"><ellipse class="c" cx="36.946" cy="36.985" rx="36.946" ry="36.985"/><ellipse class="d" cx="36.946" cy="36.985" rx="34.446" ry="34.485"/></g><line class="a" x2="38" y2="24" transform="translate(640.784 2431.04) rotate(-16)"/><line class="a" x2="38" y2="24" transform="translate(1717.784 2295.04) rotate(-16)"/><line class="a" x2="38" y2="24" transform="translate(1199.784 2945.04) rotate(-16)"/><line class="a" x2="38" y2="24" transform="translate(1838.784 2616.04) rotate(-16)"/><path class="a" d="M67.414,2092.035l-22.976,17.784,18.324,23.28,22.7-18.828Z" transform="translate(-523.328 544.426) rotate(-16)"/><path class="a" d="M67.414,2092.035l-22.976,17.784,18.324,23.28,22.7-18.828Z" transform="translate(1238.749 590.106) rotate(11)"/><path class="a" d="M67.414,2092.035l-22.976,17.784,18.324,23.28,22.7-18.828Z" transform="translate(3750.522 2673.442) rotate(89)"/><path class="a" d="M22.936,41.068.006,23.292,18.306.008,40.962,18.826Z" transform="translate(228.546 2844.799) rotate(-11)"/><path class="a" d="M77.547,2092.035l-33.108,25.627,26.405,33.546,32.713-27.131Z" transform="matrix(0.53, 0.848, -0.848, 0.53, 3358.435, 1304.212)"/><path class="a" d="M77.547,2092.035l-33.108,25.627,26.405,33.546,32.713-27.131Z" transform="translate(1621.878 258.751) rotate(14)"/><path class="a" d="M179.566,2303.934l-2.3,66.466,51.616-45.383Z" transform="translate(3696.743 2295.666) rotate(89)"/><path class="a" d="M178.81,2303.934l-1.549,44.675,34.694-30.5Z" transform="translate(155.199 284.979) rotate(-16)"/><path class="a" d="M178.81,2303.934l-1.549,44.675,34.694-30.5Z" transform="translate(-1906.599 2248.797) rotate(-81)"/><circle class="b" cx="10" cy="10" r="10" transform="translate(434.15 2681.429) rotate(-16)"/><circle class="b" cx="10" cy="10" r="10" transform="translate(1187.15 2644.429) rotate(-16)"/><circle class="b" cx="10" cy="10" r="10" transform="translate(1769.15 2944.429) rotate(-16)"/><ellipse class="b" cx="9.978" cy="9.994" rx="9.978" ry="9.994" transform="translate(830.3 2979.662) rotate(16)"/><path class="a" d="M100.117,2590.291c3.155,0,23.356-5.236,23.356-5.236l10.23,53.96-25.2,6.962Z" transform="translate(-662.102 -146.736) rotate(-16)"/></g></svg>