<svg xmlns="http://www.w3.org/2000/svg" viewBox="1850.689 -2524.31 1981.311 722.62"><defs><style>.a{fill:#fffcdb;}</style></defs><g transform="translate(-103 -991)"><circle class="a" cx="127" cy="127" r="127" transform="translate(3681 -1076)"/><path class="a" d="M361.311,722.62a363.982,363.982,0,0,1-72.817-7.341,359.334,359.334,0,0,1-129.2-54.365,362.363,362.363,0,0,1-130.9-158.965A359.483,359.483,0,0,1,7.341,434.128a364.834,364.834,0,0,1,0-145.633A359.335,359.335,0,0,1,61.706,159.3a362.363,362.363,0,0,1,158.966-130.9A359.492,359.492,0,0,1,288.494,7.341a364.834,364.834,0,0,1,145.633,0A359.33,359.33,0,0,1,563.322,61.706a362.364,362.364,0,0,1,130.9,158.966,359.5,359.5,0,0,1,21.053,67.822,364.835,364.835,0,0,1,0,145.633,359.328,359.328,0,0,1-54.365,129.195,362.365,362.365,0,0,1-158.965,130.9,359.49,359.49,0,0,1-67.821,21.053A363.975,363.975,0,0,1,361.311,722.62Zm0-638.24A278.982,278.982,0,0,0,305.5,90.006a275.413,275.413,0,0,0-99.024,41.669A277.741,277.741,0,0,0,106.142,253.517,275.538,275.538,0,0,0,90.006,305.5a279.632,279.632,0,0,0,0,111.623,275.409,275.409,0,0,0,41.669,99.023A277.741,277.741,0,0,0,253.517,616.478,275.542,275.542,0,0,0,305.5,632.614a279.639,279.639,0,0,0,111.623,0,275.412,275.412,0,0,0,99.023-41.669,277.736,277.736,0,0,0,100.333-121.84,275.539,275.539,0,0,0,16.136-51.983,279.639,279.639,0,0,0,0-111.623,275.415,275.415,0,0,0-41.669-99.024,277.737,277.737,0,0,0-121.84-100.334,275.535,275.535,0,0,0-51.983-16.136A278.982,278.982,0,0,0,361.311,84.38Z" transform="translate(1953.689 -1533.31)"/></g></svg>